<svg id="Layer_1" data-name="Layer 1" xmlns="http://www.w3.org/2000/svg" xmlns:xlink="http://www.w3.org/1999/xlink" viewBox="0 0 468 159.53"><defs><style>.cls-1{font-size:123.88px;font-family:AgencyFB-Reg, Agency FB;}.cls-2{fill:url(#linear-gradient);}.cls-3{fill:url(#linear-gradient-2);}.cls-4{fill:url(#linear-gradient-3);}.cls-5{font-size:28.25px;font-family:Poppins-Light, Poppins;font-weight:300;}</style><linearGradient id="linear-gradient" x1="51.53" y1="246.32" x2="155.58" y2="246.32" gradientUnits="userSpaceOnUse"><stop offset="0" stop-color="#2d2d2d"/><stop offset="1" stop-color="#191919"/></linearGradient><linearGradient id="linear-gradient-2" x1="16" y1="216.13" x2="42.38" y2="216.13" xlink:href="#linear-gradient"/><linearGradient id="linear-gradient-3" x1="49.74" y1="238.73" x2="69.1" y2="238.73" xlink:href="#linear-gradient"/></defs><title>kinsey-dark</title><text class="cls-1" transform="translate(156.86 109.26)">PIXELAB</text><path class="cls-2" d="M88.44,188.08h27.14c22.2,0,39.42,16.76,40,38.91.54,21.2-17.41,39.68-38.64,39.74-8,0-16.07,0-24.1-.08-2.08,0-2.85.7-3.15,2.73C88.47,277.7,87,286,85.81,294.33a11.81,11.81,0,0,1-11.55,10.22c-5-.07-8.76-3.91-8.12-8.8q2-15.17,4.48-30.28c.95-5.76,5-9.35,11-9.73,4.82-.31,9.67-.13,14.5-.17,2.42,0,4.84,0,7.25,0,3.47-.1,6-2.45,6-5.58s-2.4-5.56-5.93-5.66c-4.06-.11-8.11,0-12.17,0-3,0-5.93,0-8.89,0-3.4-.07-5.81-2.28-5.94-5.36s2.13-5.52,5.58-5.7,7.17-.09,10.76-.1c5.46,0,10.92,0,16.38,0,4,0,6.41-2.23,6.39-5.6s-2.57-5.64-6.43-5.66c-16.61-.07-33.22-.08-49.83-.15a14.33,14.33,0,0,1-4.14-.51,5.05,5.05,0,0,1-3.56-5,5,5,0,0,1,3.39-4.86,12.92,12.92,0,0,1,4.12-.59c13.8-.06,27.61,0,41.41-.1,4.85,0,7.58-4.67,5.15-8.61-1.27-2.07-3.24-2.73-5.59-2.73-11.23,0-22.46,0-33.69,0-2.66,0-5.31,0-8,0-3.51-.07-6-2.41-6-5.57s2.42-5.41,5.85-5.43c10.06-.06,20.12,0,30.18,0Z" transform="translate(-16 -170.23)"/><path class="cls-3" d="M29.28,221.6c-2.48,0-5,.09-7.46,0-3.48-.14-5.83-2.41-5.82-5.45s2.52-5.35,5.89-5.42c4.9-.11,9.8-.1,14.7,0a5.59,5.59,0,0,1,5.78,5.5c-.09,3.09-2.46,5.28-5.85,5.41H29.28Z" transform="translate(-16 -170.23)"/><path class="cls-4" d="M59.53,244c-1.55,0-3.12.11-4.66,0a5.41,5.41,0,0,1-5.13-5.36,5.25,5.25,0,0,1,5.41-5.22c2.87-.08,5.75-.1,8.62,0a5.16,5.16,0,0,1,5.33,5.29A5.39,5.39,0,0,1,64,244c-1.47.12-3,0-4.43,0Z" transform="translate(-16 -170.23)"/><text class="cls-5" transform="translate(338.9 143.6)">Solutions</text></svg>